<svg width="366" height="271" viewBox="0 0 366 271" fill="none" xmlns="http://www.w3.org/2000/svg">
<path d="M225.87 224.64C251.79 180.45 285.84 143.93 326.1 113.11C338.68 103.49 352 94.8399 364.99 85.7499C365.31 86.0399 365.62 86.3199 365.94 86.6099C365.94 87.4699 365.94 88.3399 365.94 89.1999C365.94 103.42 366.02 117.64 365.83 131.85C365.81 133.45 364.73 135.62 363.44 136.52C314.44 170.85 275.66 214.09 248.63 267.59C247.63 269.56 246.56 270.12 244.49 270.11C231.3 270.03 218.11 269.99 204.93 270.13C202.29 270.16 201.58 269.05 200.74 266.8C197.86 259.13 194.81 251.51 191.43 244.06C189.18 239.1 186.24 234.46 183.23 228.98C182.04 230.75 181.03 231.88 180.43 233.2C175.26 244.55 170.08 255.9 165.11 267.35C164.26 269.32 163.51 270.15 161.27 270.13C147.95 270.02 134.63 270.01 121.31 270.14C119.04 270.16 118.1 269.19 117.22 267.41C94.85 222.41 63.19 184.9 24.52 153.11C17.48 147.32 9.89 142.2 2.62 136.67C1.6 135.89 0.319995 134.58 0.309995 133.5C0.159995 117.99 0.209996 102.49 0.209996 85.9599C58.08 121.55 105.49 166.47 140.28 224.77C143.16 219.41 145.79 214.36 148.55 209.38C151.64 203.79 154.7 198.18 158.07 192.76C159.48 190.48 159.27 188.95 157.83 186.83C142.25 163.83 124.09 143.03 104 123.91C73.25 94.6399 39.41 69.4699 2.61 48.2599C1.5 47.6199 0.31 45.9699 0.3 44.7799C0.15 30.5599 0.209995 16.3499 0.239995 2.12991C0.239995 1.76991 0.429999 1.41991 0.719999 0.439911C73.81 37.1099 136.13 86.1099 182.99 153.83C229.8 86.0699 292.26 37.0499 365.75 0.169922C365.83 2.03992 365.93 3.26991 365.93 4.49991C365.94 17.2799 365.85 30.0699 366 42.8499C366.03 45.7699 365.24 47.3399 362.55 48.9099C310.45 79.2199 263.99 116.34 225.74 163.19C219.48 170.86 213.83 179.03 208.1 187.11C207.27 188.28 206.93 190.67 207.56 191.85C213.44 202.72 219.58 213.46 225.87 224.64Z" fill="white"/>
<path d="M365.74 178.68C365.74 209.22 365.74 239.43 365.74 269.85C339.78 269.85 314.02 269.85 288.23 269.85C292.49 250.22 341.07 193.01 365.74 178.68Z" fill="white"/>
<path d="M77.93 269.89C52.05 269.89 26.39 269.89 0.459991 269.89C0.459991 239.57 0.459991 209.44 0.459991 179.26C19.21 186.75 70.8 247 77.93 269.89Z" fill="white"/>
</svg>
