<svg width="607" height="514" viewBox="0 0 607 514" fill="none" xmlns="http://www.w3.org/2000/svg">
<g filter="url(#filter0_f_10_146)">
<path d="M391.678 453.66C433.768 381.9 489.052 322.596 554.434 272.556C574.852 256.926 596.5 242.898 617.584 228.132C618.094 228.594 618.61 229.062 619.12 229.524C619.12 230.928 619.12 232.326 619.12 233.73C619.12 256.818 619.246 279.906 618.946 302.988C618.91 305.58 617.158 309.108 615.064 310.578C535.492 366.318 472.534 436.536 428.632 523.404C427.012 526.608 425.272 527.52 421.906 527.496C400.492 527.358 379.072 527.298 357.664 527.532C353.374 527.58 352.228 525.774 350.86 522.126C346.186 509.676 341.236 497.304 335.74 485.202C332.086 477.156 327.316 469.614 322.42 460.71C320.482 463.59 318.85 465.426 317.878 467.556C309.478 485.988 301.066 504.42 293.008 523.008C291.622 526.212 290.404 527.55 286.78 527.52C265.156 527.34 243.526 527.322 221.902 527.538C218.218 527.574 216.694 525.996 215.254 523.098C178.93 450.018 127.516 389.112 64.714 337.5C53.278 328.098 40.954 319.782 29.152 310.806C27.496 309.546 25.42 307.404 25.402 305.652C25.156 280.47 25.234 255.288 25.234 228.456C119.212 286.254 196.192 359.19 252.67 453.852C257.338 445.146 261.622 436.944 266.104 428.856C271.126 419.784 276.094 410.67 281.566 401.874C283.864 398.178 283.51 395.682 281.182 392.25C255.88 354.906 226.396 321.126 193.768 290.076C143.83 242.55 88.888 201.672 29.134 167.232C27.34 166.194 25.396 163.518 25.378 161.586C25.132 138.504 25.234 115.416 25.276 92.328C25.276 91.752 25.594 91.17 26.056 89.574C144.736 149.112 245.926 228.678 322.03 338.658C398.044 228.636 499.462 149.028 618.802 89.142C618.934 92.184 619.102 94.182 619.102 96.18C619.12 116.94 618.976 137.694 619.216 158.448C619.27 163.2 617.986 165.744 613.612 168.288C529.006 217.506 453.568 277.77 391.468 353.862C381.304 366.312 372.124 379.578 362.83 392.712C361.486 394.608 360.922 398.502 361.96 400.416C371.5 418.074 381.46 435.498 391.678 453.66Z" fill="#FEF2F2"/>
<path d="M618.808 379.032C618.808 428.616 618.808 477.672 618.808 527.076C576.658 527.076 534.82 527.076 492.946 527.076C499.864 495.192 578.74 402.294 618.808 379.032Z" fill="#FEF2F2"/>
<path d="M151.456 527.13C109.426 527.13 67.7739 527.13 25.6599 527.13C25.6599 477.9 25.6599 428.964 25.6599 379.962C56.1039 392.13 139.876 489.966 151.456 527.13Z" fill="#FEF2F2"/>
</g>
<defs>
<filter id="filter0_f_10_146" x="-3" y="-25" width="650" height="650" filterUnits="userSpaceOnUse" color-interpolation-filters="sRGB">
<feFlood flood-opacity="0" result="BackgroundImageFix"/>
<feBlend mode="normal" in="SourceGraphic" in2="BackgroundImageFix" result="shape"/>
<feGaussianBlur stdDeviation="12.5" result="effect1_foregroundBlur_10_146"/>
</filter>
</defs>
</svg>
