<svg width="509" height="158" viewBox="0 0 509 158" fill="none" xmlns="http://www.w3.org/2000/svg">
<g filter="url(#filter0_d_10_111)">
<path d="M234.242 0.00294412C236.971 2.76142 239.697 5.51991 242.435 8.26953C242.786 8.62356 243.194 8.92154 243.524 9.20181C240.267 12.4028 237.128 15.4888 234.068 18.4921C231.157 15.5832 228.044 12.4736 224.813 9.24902C226.247 7.8388 227.82 6.32532 229.36 4.77645C230.926 3.20102 232.461 1.59313 234.009 0C234.089 0.00295024 234.166 0.00294412 234.242 0.00294412Z" fill="#FEF2F2"/>
<path d="M70.5776 67.3688C78.2246 54.3317 88.2702 43.5574 100.148 34.4647C103.859 31.6266 107.789 29.0746 111.621 26.3929C111.716 26.4784 111.807 26.561 111.902 26.6466C111.902 26.9003 111.902 27.157 111.902 27.4107C111.902 31.606 111.925 35.8012 111.869 39.9935C111.863 40.4655 111.545 41.1057 111.164 41.3713C96.7079 51.4994 85.2668 64.2563 77.2923 80.0401C76.9973 80.6213 76.6816 80.7865 76.0709 80.7836C72.1795 80.76 68.2882 80.7482 64.3997 80.7895C63.6209 80.7983 63.4114 80.4708 63.1636 79.807C62.3139 77.5442 61.4141 75.2961 60.4169 73.0982C59.7531 71.6349 58.8857 70.2659 57.9977 68.6492C57.6466 69.1714 57.3487 69.5048 57.1717 69.8942C55.6464 73.2427 54.1181 76.5913 52.6519 79.9693C52.4011 80.5505 52.1798 80.7954 51.519 80.7895C47.5893 80.757 43.6595 80.7541 39.7298 80.7924C39.0601 80.7983 38.7828 80.5121 38.5232 79.987C31.9235 66.7109 22.583 55.6445 11.1744 46.2657C9.09743 44.5575 6.8582 43.047 4.71337 41.4155C4.41245 41.1854 4.03481 40.7989 4.03186 40.4803C3.98761 35.9045 4.00236 31.3316 4.00236 26.4548C21.0754 36.9547 35.0625 50.2072 45.3264 67.4072C46.1761 65.8258 46.952 64.336 47.7663 62.8667C48.6779 61.2176 49.5807 59.5625 50.5749 57.9634C50.9909 57.2908 50.9289 56.8394 50.5041 56.2139C45.9076 49.4284 40.55 43.2919 34.6229 37.651C25.5509 29.0156 15.5673 21.5899 4.71042 15.3324C4.38294 15.1436 4.03186 14.6568 4.02891 14.3057C3.98466 10.1105 4.00236 5.91819 4.01121 1.72294C4.01121 1.61674 4.06727 1.51348 4.15282 1.22435C25.7162 12.0429 44.1021 26.4991 57.9269 46.4781C71.737 26.4873 90.1642 12.0252 111.846 1.1447C111.869 1.69639 111.899 2.05927 111.899 2.42215C111.902 6.19256 111.875 9.96592 111.919 13.7363C111.928 14.5978 111.695 15.061 110.901 15.5242C95.5307 24.4664 81.8239 35.4177 70.5392 49.2396C68.6924 51.5024 67.0255 53.9127 65.335 56.2965C65.0901 56.6417 64.9898 57.3468 65.1757 57.695C66.9104 60.9019 68.7219 64.0704 70.5776 67.3688Z" fill="#FEF2F2"/>
<path d="M213.826 80.7924C209.082 80.7924 204.43 80.7924 199.633 80.7924C199.633 64.5897 199.633 48.4194 199.633 31.8921C199.187 32.4556 198.948 32.727 198.745 33.0221C193.06 41.1559 187.369 49.2868 181.713 57.4442C181.214 58.1611 180.707 58.4414 179.834 58.4119C177.833 58.344 175.827 58.3529 173.824 58.4089C173.007 58.4325 172.508 58.1876 172.033 57.4943C166.437 49.3458 160.805 41.2208 155.182 33.0899C154.975 32.789 154.748 32.5028 154.329 31.9364C154.329 48.4076 154.329 64.5425 154.329 80.7511C149.573 80.7511 144.932 80.7511 140.203 80.7511C140.203 57.1964 140.203 33.6328 140.203 9.99542C140.436 9.96591 140.693 9.90101 140.947 9.90101C144.761 9.8951 148.573 9.91871 152.388 9.87445C153.134 9.8656 153.47 10.2344 153.848 10.7507C161.212 20.8081 168.587 30.8566 175.963 40.9081C176.232 41.2739 176.509 41.6338 176.854 42.0911C178.267 40.2148 179.633 38.4092 180.993 36.6007C187.463 27.983 193.939 19.3713 200.388 10.7389C200.854 10.1164 201.326 9.8715 202.102 9.88035C205.988 9.9187 209.87 9.89805 213.826 9.89805C213.826 33.5472 213.826 57.1167 213.826 80.7924Z" fill="#FEF2F2"/>
<path d="M477.183 58.1817C463.267 58.1817 449.722 58.1817 436.163 58.1817C436.995 65.0824 442.323 70.0653 449.321 70.6819C456.186 71.2867 462.585 69.5048 468.86 67.0236C469.285 66.8554 469.713 66.6843 470.241 66.4719C470.946 69.3101 471.654 72.0951 472.33 74.889C472.938 77.3996 472.929 77.4144 470.571 78.5591C467.099 80.2466 463.367 80.9842 459.567 81.3913C454.466 81.9371 449.347 82.241 444.276 81.1848C434.661 79.1875 428.339 73.3902 425.164 64.1884C422.792 57.3114 422.202 50.2367 424.152 43.1886C427.182 32.2432 434.658 25.9562 445.677 23.8144C451.197 22.7405 456.779 22.6667 461.998 25.0918C471.539 29.526 476.646 37.2822 477.676 47.5963C478.021 51.0274 477.381 54.5559 477.183 58.1817ZM465.125 47.2658C463.736 38.3266 457.154 33.0014 448.869 33.9868C441.948 34.8099 435.399 41.4716 435.853 47.2658C445.586 47.2658 455.325 47.2658 465.125 47.2658Z" fill="#FEF2F2"/>
<path d="M364.743 80.7806C364.743 79.7893 364.743 78.8423 364.743 77.7714C363.005 78.4912 361.445 79.217 359.831 79.7893C354.485 81.6804 349.013 82.4622 343.38 81.3411C333.403 79.3586 329.473 71.6584 330.317 62.8697C330.91 56.6771 334.559 52.5704 339.778 49.6555C344.413 47.0682 349.467 45.7524 354.68 45.0532C357.949 44.6165 361.25 44.4129 364.681 44.0914C364.64 41.7105 363.755 39.5745 362.103 37.769C359.465 34.8896 355.996 34.2287 352.308 34.332C347.511 34.4647 343.274 36.0284 339.758 39.5421C339.584 39.1822 339.424 38.896 339.303 38.5951C338.2 35.8543 337.135 33.0929 335.978 30.3727C335.621 29.5319 335.804 29.0658 336.486 28.5406C339.035 26.5758 341.941 25.4104 345.024 24.6345C350.257 23.3158 355.592 22.7788 360.94 23.4249C369.272 24.4309 374.163 29.5467 376.603 37.2881C377.521 40.2 377.928 43.2033 377.925 46.2657C377.91 57.2701 377.919 68.2716 377.919 79.276C377.919 79.7657 377.919 80.2584 377.919 80.7835C373.473 80.7806 369.171 80.7806 364.743 80.7806ZM364.956 55.6976C360.055 55.7035 355.409 56.0782 350.948 57.7274C348.319 58.698 345.927 60.0345 344.151 62.2914C342.965 63.799 342.841 65.4482 343.507 67.177C344.23 69.0563 345.723 70.1066 347.593 70.5816C353.659 72.1246 360.471 69.375 364.661 64.9732C364.808 64.8198 364.941 64.5749 364.944 64.3713C364.962 61.5362 364.956 58.698 364.956 55.6976Z" fill="#FEF2F2"/>
<path d="M279.024 69.4871C280.024 72.8238 281.004 76.0868 282.06 79.6123C279.797 80.1463 277.667 80.7541 275.495 81.1406C272.103 81.7454 268.666 81.8073 265.264 81.2202C260.134 80.3352 257.089 77.0191 255.841 72.2013C255.03 69.0682 254.481 65.7727 254.457 62.5452C254.325 45.3482 254.395 28.1483 254.395 10.9484C254.395 10.6474 254.395 10.3465 254.395 9.97183C258.797 9.97183 263.093 9.97183 267.542 9.97183C267.542 14.6568 267.542 19.3625 267.542 24.1891C271.796 24.1891 275.9 24.1891 280.065 24.1891C280.065 28.1483 280.065 31.9806 280.065 35.9428C275.932 35.9428 271.834 35.9428 267.648 35.9428C267.618 36.4001 267.574 36.7335 267.574 37.0639C267.571 45.8763 267.556 54.6857 267.592 63.4981C267.595 64.5218 267.769 65.5751 268.043 66.5634C269.064 70.2748 271.728 71.7824 275.445 70.7616C276.617 70.443 277.747 69.9473 279.024 69.4871Z" fill="#FEF2F2"/>
<path d="M415.573 69.4841C416.561 72.7618 417.541 76.0189 418.603 79.5386C416.83 80.0076 415.122 80.5269 413.384 80.9016C409.622 81.7129 405.817 81.8427 402.02 81.2497C396.827 80.4384 393.712 77.1459 392.428 72.2809C391.614 69.1891 391.062 65.932 391.039 62.7428C390.906 45.4691 390.977 28.1925 390.977 10.9159C390.977 10.6179 390.977 10.3199 390.977 9.95706C395.382 9.95706 399.68 9.95706 404.117 9.95706C404.117 14.6509 404.117 19.3595 404.117 24.1949C408.348 24.1949 412.449 24.1949 416.609 24.1949C416.609 28.1571 416.609 31.9865 416.609 35.9458C412.493 35.9458 408.395 35.9458 404.209 35.9458C404.185 36.4414 404.156 36.8131 404.156 37.1849C404.153 45.9559 404.138 54.73 404.173 63.501C404.176 64.5248 404.344 65.578 404.619 66.5663C405.66 70.3102 408.277 71.7912 412.015 70.7616C413.186 70.443 414.31 69.9444 415.573 69.4841Z" fill="#FEF2F2"/>
<path d="M501.753 1.14766C501.753 27.7589 501.753 54.2609 501.753 80.8131C497.383 80.8131 493.079 80.8131 488.71 80.8131C488.71 54.258 488.71 27.7559 488.71 1.14766C493.032 1.14766 497.354 1.14766 501.753 1.14766Z" fill="#FEF2F2"/>
<path d="M306.137 80.7924C301.711 80.7924 297.442 80.7924 293.088 80.7924C293.088 61.9728 293.088 43.1798 293.088 24.3011C297.383 24.3011 301.679 24.3011 306.116 24.3011C306.116 25.4665 306.116 26.6672 306.116 27.6379C308.512 26.4814 310.783 25.0771 313.253 24.2598C318.366 22.5694 323.573 22.9411 328.727 24.31C328.986 24.3779 329.234 24.49 329.485 24.5873C331.954 25.558 331.996 25.6553 331.046 28.1129C329.895 31.0867 328.75 34.0606 327.709 36.76C325.567 36.0431 323.529 35.1197 321.396 34.7037C317.637 33.972 314.454 35.5327 311.633 37.8752C308.951 40.1027 307.202 42.9614 306.287 46.3188C306.157 46.7909 306.146 47.3042 306.146 47.7998C306.137 58.3057 306.14 68.8085 306.14 79.3143C306.137 79.7657 306.137 80.223 306.137 80.7924Z" fill="#FEF2F2"/>
<path d="M240.645 80.7836C236.272 80.7836 231.977 80.7836 227.607 80.7836C227.607 61.9551 227.607 43.1709 227.607 24.2982C231.927 24.2982 236.249 24.2982 240.645 24.2982C240.645 43.0913 240.645 61.8784 240.645 80.7836Z" fill="#FEF2F2"/>
<path d="M462.509 117.93C462.107 113.531 462.629 109.433 464.848 105.678C465.299 104.914 465.763 103.692 466.786 104.073C467.418 104.309 467.899 105.462 468.076 106.282C468.397 107.775 468.424 109.33 468.604 110.858C468.689 111.578 468.769 112.319 468.996 113C469.353 114.065 470.076 114.263 470.787 113.41C471.586 112.446 472.28 111.36 472.837 110.236C474.065 107.758 475.136 105.206 476.357 102.724C476.844 101.736 477.44 100.745 478.201 99.966C478.658 99.4999 479.655 99.1016 480.186 99.2933C480.706 99.4792 481.263 100.456 481.251 101.075C481.207 103.256 480.945 105.433 480.723 107.607C480.543 109.363 480.269 111.109 480.124 112.867C480.089 113.31 480.378 113.779 480.52 114.239C481.004 114.083 481.623 114.065 481.954 113.75C483.73 112.044 485.37 110.2 487.175 108.531C489.087 106.76 491.093 105.085 493.138 103.468C493.908 102.857 494.967 102.326 495.888 103.132C496.781 103.919 496.472 105.07 496.009 105.926C494.648 108.418 493.15 110.832 491.701 113.275C490.84 114.729 489.949 116.166 489.126 117.644C488.851 118.137 488.668 118.712 488.586 119.272C488.48 119.978 488.869 120.411 489.606 120.27C490.164 120.163 490.716 119.954 491.229 119.703C493.645 118.52 496.003 117.195 498.475 116.145C500.003 115.496 501.679 115.086 503.328 114.865C504.738 114.676 505.44 115.818 504.703 117.045C504.021 118.181 503.166 119.293 502.151 120.131C499.277 122.509 496.265 124.719 493.342 127.037C491.925 128.159 490.483 129.271 489.232 130.563C487.724 132.124 488.052 133.283 490.158 133.711C492.217 134.13 494.362 134.127 496.442 134.472C497.428 134.634 498.469 135.003 499.28 135.575C500.682 136.564 500.617 137.894 499.086 138.65C497.516 139.423 495.826 140.027 494.126 140.443C490.722 141.278 487.267 141.228 483.73 140.535C486.81 133.755 486.043 127.436 480.886 122.108C475.811 116.865 469.501 115.768 462.509 117.93Z" fill="#FEF2F2"/>
<path d="M111.843 53.8095C111.843 62.8195 111.843 71.7322 111.843 80.7068C104.184 80.7068 96.584 80.7068 88.9753 80.7068C90.2321 74.9155 104.564 58.0372 111.843 53.8095Z" fill="#FEF2F2"/>
<path d="M26.9317 80.7187C19.2965 80.7187 11.7262 80.7187 4.07617 80.7187C4.07617 71.7735 4.07617 62.8845 4.07617 53.9806C9.60788 56.1904 24.8282 73.9656 26.9317 80.7187Z" fill="#FEF2F2"/>
<path d="M462.234 118.417C462.511 119.623 462.7 120.762 463.048 121.851C463.287 122.603 463.084 122.925 462.417 123.267C459.691 124.677 457.847 126.846 456.995 129.822C455.304 135.732 459.809 142.184 465.948 142.812C469.958 143.222 473.292 142.081 476.035 139.145C476.242 138.924 476.655 138.641 476.867 138.712C478.938 139.384 480.983 140.128 483.14 140.886C482.018 143.001 480.431 144.68 478.508 146.058C469.12 152.775 455.519 148.22 452.463 137.34C450.356 129.84 454.354 121.609 461.559 118.615C461.733 118.541 461.921 118.508 462.234 118.417Z" fill="#FEF2F2"/>
<path d="M476.413 138.24C470.038 134.923 466.052 129.69 463.562 123.164C466.491 121.432 472.362 121.978 475.817 125.801C478.874 129.179 479.23 134.561 476.413 138.24Z" fill="#FEF2F2"/>
<path d="M329.553 129.259C331.943 127.793 333.722 127.943 336.185 130.059C337.4 128.819 338.876 128.25 340.64 128.38C342.982 128.554 344.649 130.076 344.747 132.404C344.841 134.667 344.779 136.938 344.776 139.207C344.773 139.989 344.387 140.437 343.575 140.432C342.782 140.429 342.348 139.992 342.333 139.222C342.304 137.647 342.324 136.071 342.313 134.493C342.31 133.994 342.298 133.493 342.242 132.997C342.062 131.463 341.286 130.693 339.914 130.649C338.368 130.595 337.25 131.398 337.094 132.923C336.925 134.561 336.97 136.219 336.926 137.868C336.914 138.29 336.917 138.715 336.923 139.136C336.937 139.918 336.589 140.39 335.784 140.426C334.919 140.464 334.492 139.968 334.477 139.16C334.444 137.278 334.506 135.393 334.435 133.51C334.356 131.374 333.249 130.386 331.423 130.687C330.184 130.89 329.273 131.799 329.169 133.242C329.042 135.041 329.072 136.85 329.069 138.656C329.066 139.558 329.051 140.432 327.827 140.426C326.588 140.417 326.603 139.485 326.6 138.62C326.591 135.814 326.6 133.009 326.594 130.2C326.594 129.48 326.611 128.66 327.491 128.589C328.057 128.548 328.659 128.949 329.553 129.259Z" fill="#FEF2F2"/>
<path d="M377.728 139.187C374.78 141.373 371.668 141.299 369.455 139.027C367.446 136.965 367.304 133.177 369.151 130.84C371.137 128.327 374.164 128.07 377.84 130.188C377.84 128.707 377.846 127.303 377.837 125.899C377.831 125.055 377.987 124.288 379.014 124.261C380.073 124.232 380.223 125.031 380.223 125.857C380.229 130.168 380.232 134.478 380.223 138.788C380.22 139.549 380.306 140.423 379.262 140.617C378.179 140.821 377.94 139.989 377.728 139.187ZM377.931 134.723C377.919 132.425 376.187 130.69 373.933 130.711C371.839 130.728 370.178 132.519 370.213 134.726C370.249 137.03 371.927 138.785 374.06 138.75C376.238 138.712 377.943 136.938 377.931 134.723Z" fill="#FEF2F2"/>
<path d="M286.641 135.516C286.895 138.293 290.238 139.066 292.341 137.779C292.669 137.579 292.958 137.177 293.285 137.154C293.787 137.115 294.451 137.174 294.766 137.481C294.973 137.685 294.87 138.579 294.595 138.841C292.816 140.55 290.639 141.01 288.297 140.376C286.054 139.768 284.497 138.319 284.054 135.983C283.609 133.643 283.927 131.419 285.919 129.808C287.786 128.294 289.907 127.843 292.173 128.837C294.368 129.802 295.359 131.596 295.513 133.935C295.581 134.965 295.12 135.457 294.126 135.469C291.973 135.496 289.822 135.502 287.668 135.516C287.329 135.519 286.99 135.516 286.641 135.516ZM292.864 133.425C292.592 131.643 291.385 130.536 289.784 130.516C288.223 130.495 286.827 131.755 286.609 133.425C288.674 133.425 290.731 133.425 292.864 133.425Z" fill="#FEF2F2"/>
<path d="M306.32 135.552C304.98 136.528 303.983 137.499 304.296 139.24C304.42 139.936 303.897 140.511 303.198 140.387C302.714 140.302 302.257 139.812 301.891 139.411C301.726 139.231 301.791 138.821 301.788 138.517C301.782 134.289 301.779 130.061 301.794 125.834C301.794 125.421 301.785 124.875 302.027 124.633C302.351 124.303 303.045 123.934 303.346 124.075C303.782 124.282 304.266 124.919 304.284 125.391C304.378 127.769 304.328 130.156 304.328 132.537C304.328 132.994 304.328 133.454 304.328 134.23C305.375 133.248 306.252 132.436 307.11 131.613C307.998 130.764 308.874 129.899 309.751 129.035C310.347 128.448 311.028 128.206 311.668 128.858C312.338 129.539 311.975 130.182 311.382 130.743C310.32 131.74 309.264 132.746 308.11 133.835C309.403 135.404 310.715 136.897 311.884 138.493C312.146 138.853 311.907 139.576 311.901 140.131C311.305 140.113 310.704 140.145 310.122 140.051C309.919 140.019 309.765 139.673 309.594 139.467C308.506 138.175 307.426 136.879 306.32 135.552Z" fill="#FEF2F2"/>
<path d="M318.793 140.635C315.238 140.656 312.379 137.965 312.379 134.602C312.379 131.05 315.085 128.383 318.705 128.365C322.357 128.347 325.186 130.991 325.201 134.434C325.219 137.871 322.384 140.612 318.793 140.635ZM322.587 134.546C322.599 132.33 320.971 130.634 318.802 130.595C316.657 130.56 314.92 132.295 314.928 134.463C314.937 136.617 316.678 138.355 318.814 138.352C320.965 138.346 322.578 136.72 322.587 134.546Z" fill="#FEF2F2"/>
<path d="M410.891 135.593C411.478 138.13 413.644 139.375 415.913 138.611C416.343 138.467 416.771 138.263 417.152 138.012C417.827 137.567 418.577 136.856 419.243 137.768C419.972 138.762 418.975 139.278 418.305 139.741C415.37 141.78 411.006 140.904 409.28 137.959C407.481 134.888 408.667 130.734 411.767 129.247C415.529 127.445 419.609 129.772 419.966 133.926C420.081 135.245 419.777 135.587 418.456 135.593C415.963 135.599 413.467 135.593 410.891 135.593ZM417.526 133.823C417.284 131.714 415.986 130.572 414.128 130.672C412.422 130.764 411.048 132.1 411.018 133.743C411.275 133.77 411.537 133.82 411.797 133.82C413.676 133.826 415.553 133.823 417.526 133.823Z" fill="#FEF2F2"/>
<path d="M444.492 133.428C444.403 131.563 443.111 130.566 441.054 130.79C440.261 130.876 439.482 131.121 438.7 131.309C438.028 131.472 437.34 131.59 437.08 130.74C436.85 129.982 437.376 129.616 438.007 129.392C439.898 128.722 441.824 128.507 443.775 129.079C445.589 129.61 446.654 130.849 446.751 132.743C446.861 134.85 446.902 136.965 446.837 139.072C446.819 139.597 446.371 140.405 445.949 140.535C445.515 140.671 444.872 140.137 444.07 139.788C442.55 140.901 440.55 141.199 438.411 140.355C436.957 139.78 436.092 138.753 436.027 137.148C435.965 135.62 436.774 134.366 438.269 133.72C440.037 132.956 441.883 133.168 443.722 133.348C443.975 133.372 444.229 133.401 444.492 133.428ZM441.771 134.926C441.76 134.882 441.751 134.841 441.739 134.797C440.933 135.006 440.072 135.098 439.334 135.452C438.228 135.98 438.06 137.319 438.871 138.16C440.346 139.682 443.837 138.865 444.483 136.844C444.878 135.599 444.677 135.281 443.373 135.106C442.839 135.033 442.305 134.983 441.771 134.926Z" fill="#FEF2F2"/>
<path d="M394.559 134.773C394.52 138.251 391.691 140.895 388.08 140.827C384.498 140.762 381.778 138.066 381.846 134.649C381.914 131.168 384.808 128.557 388.516 128.628C391.856 128.696 394.597 131.484 394.559 134.773ZM392.169 134.791C392.175 132.498 390.458 130.728 388.213 130.708C385.953 130.69 384.224 132.445 384.233 134.746C384.245 136.995 386.053 138.809 388.263 138.785C390.493 138.762 392.163 137.054 392.169 134.791Z" fill="#FEF2F2"/>
<path d="M280.9 127.011C280.9 130.911 280.903 134.637 280.897 138.363C280.897 138.744 280.992 139.234 280.8 139.485C280.49 139.886 279.968 140.378 279.549 140.367C279.142 140.355 278.664 139.815 278.381 139.396C278.195 139.122 278.281 138.653 278.281 138.269C278.275 134.965 278.278 131.658 278.278 128.353C278.278 127.943 278.278 127.53 278.278 127.011C276.918 127.011 275.696 127.002 274.472 127.014C273.699 127.023 273.023 126.825 272.997 125.937C272.97 125.02 273.599 124.698 274.451 124.701C277.876 124.707 281.299 124.704 284.724 124.707C285.553 124.707 286.231 124.99 286.184 125.934C286.14 126.787 285.5 127.035 284.706 127.017C283.488 126.993 282.263 127.011 280.9 127.011Z" fill="#FEF2F2"/>
<path d="M357.899 129.696C359.173 129.33 360.312 128.787 361.483 128.71C364.283 128.527 366.106 130.191 366.272 132.994C366.393 135.062 366.348 137.142 366.342 139.219C366.339 140.013 366.112 140.706 365.1 140.638C364.165 140.576 364.053 139.912 364.047 139.16C364.032 137.316 364.029 135.469 363.965 133.628C363.9 131.773 362.917 130.778 361.212 130.749C359.356 130.719 357.987 131.932 357.937 133.74C357.887 135.546 357.973 137.357 357.884 139.16C357.86 139.647 357.548 140.314 357.155 140.55C356.433 140.986 355.627 140.402 355.615 139.461C355.574 136.348 355.553 133.233 355.624 130.12C355.633 129.69 356.117 129.05 356.527 128.896C357.344 128.592 357.76 129.238 357.899 129.696Z" fill="#FEF2F2"/>
<path d="M398.58 129.693C399.775 129.342 400.913 128.79 402.082 128.71C404.958 128.516 406.829 130.303 406.926 133.186C406.994 135.18 406.956 137.18 406.961 139.178C406.964 139.989 406.782 140.665 405.77 140.629C404.767 140.594 404.648 139.898 404.648 139.095C404.648 137.29 404.657 135.484 404.607 133.678C404.551 131.743 403.483 130.711 401.663 130.746C399.863 130.778 398.627 131.976 398.574 133.791C398.521 135.593 398.509 137.396 398.491 139.198C398.482 139.951 398.373 140.629 397.417 140.644C396.432 140.659 396.246 140.024 396.243 139.184C396.24 136.343 396.196 133.499 396.178 130.657C396.169 129.345 396.662 128.639 397.518 128.878C397.993 129.008 398.364 129.519 398.58 129.693Z" fill="#FEF2F2"/>
<path d="M425.548 128.542C426.749 128.902 427.985 129.179 429.129 129.672C429.475 129.82 429.56 130.569 429.764 131.044C429.268 131.191 428.746 131.516 428.283 131.448C427.35 131.312 426.462 130.87 425.527 130.734C424.669 130.607 423.719 130.767 423.527 131.82C423.341 132.852 424.309 133.006 424.996 133.271C425.999 133.655 427.035 133.947 428.038 134.33C429.33 134.826 430.156 135.711 430.15 137.174C430.144 138.682 429.413 139.783 428.038 140.314C425.678 141.219 423.412 140.771 421.335 139.452C420.99 139.234 420.707 138.449 420.83 138.071C421.069 137.349 421.754 137.461 422.385 137.726C423.261 138.098 424.138 138.505 425.055 138.741C425.583 138.877 426.265 138.862 426.74 138.629C427.221 138.393 427.716 137.856 427.843 137.36C427.917 137.071 427.345 136.437 426.932 136.251C425.961 135.809 424.905 135.561 423.893 135.204C421.78 134.46 421.007 133.448 421.22 131.749C421.423 130.115 422.713 129.011 424.68 128.79C424.946 128.76 425.217 128.749 425.483 128.731C425.507 128.666 425.527 128.604 425.548 128.542Z" fill="#FEF2F2"/>
<path d="M256.924 133.277C259.561 132.13 261.134 132.366 262.214 134.006C263.364 135.75 263.063 138.635 261.594 139.96C260.278 141.146 258.638 141.101 256.986 139.815C256.629 140.576 255.98 141.051 255.245 140.623C254.808 140.37 254.446 139.62 254.431 139.083C254.351 136.322 254.392 133.557 254.395 130.793C254.395 130.563 254.339 130.233 254.463 130.123C254.885 129.755 255.369 129.235 255.844 129.221C256.192 129.209 256.806 129.861 256.874 130.283C257.03 131.242 256.924 132.245 256.924 133.277ZM260.402 136.643C260.414 135.26 259.729 134.389 258.635 134.404C257.591 134.419 256.918 135.263 256.897 136.576C256.877 137.971 257.532 138.844 258.62 138.868C259.729 138.894 260.39 138.068 260.402 136.643Z" fill="#FEF2F2"/>
<path d="M299.549 132.215C299.549 134.369 299.543 136.522 299.552 138.676C299.555 139.591 299.469 140.44 298.266 140.429C297.142 140.42 297.009 139.605 297.009 138.741C297.006 134.472 297.006 130.203 297.009 125.934C297.009 125.781 297.018 125.627 297.027 125.474C297.065 124.674 297.283 123.987 298.254 123.99C299.254 123.99 299.555 124.642 299.552 125.527C299.546 127.754 299.549 129.985 299.549 132.215Z" fill="#FEF2F2"/>
<path d="M267.648 137.487C268.3 136.036 268.846 134.808 269.403 133.587C269.737 132.858 270.223 132.301 271.103 132.693C272.044 133.112 271.79 133.838 271.445 134.543C270.15 137.201 268.872 139.871 267.545 142.514C267.335 142.93 266.969 143.376 266.565 143.562C265.816 143.904 265.099 143.258 265.196 142.429C265.214 142.278 265.223 142.096 265.311 141.986C266.624 140.358 265.928 138.88 265.043 137.36C264.482 136.402 264.069 135.36 263.576 134.36C263.243 133.681 263.231 133.071 263.992 132.702C264.762 132.33 265.361 132.643 265.712 133.357C266.359 134.667 266.954 135.997 267.648 137.487Z" fill="#FEF2F2"/>
<path d="M350.405 132.664C350.405 130.628 350.411 128.592 350.402 126.557C350.399 125.731 350.473 124.934 351.541 124.919C352.559 124.904 352.795 125.639 352.795 126.492C352.798 130.678 352.798 134.864 352.795 139.051C352.795 139.892 352.588 140.632 351.55 140.623C350.464 140.615 350.402 139.827 350.408 139.001C350.411 136.888 350.405 134.776 350.405 132.664Z" fill="#FEF2F2"/>
<path d="M432.085 134.8C432.085 133.265 432.1 131.731 432.08 130.197C432.071 129.442 432.304 128.899 433.13 128.837C434.042 128.769 434.372 129.38 434.378 130.141C434.407 133.209 434.404 136.278 434.387 139.343C434.381 140.134 434.027 140.679 433.127 140.626C432.277 140.576 432.071 140.027 432.083 139.281C432.1 137.791 432.085 136.295 432.085 134.8Z" fill="#FEF2F2"/>
</g>
<defs>
<filter id="filter0_d_10_111" x="0" y="0" width="509" height="157.206" filterUnits="userSpaceOnUse" color-interpolation-filters="sRGB">
<feFlood flood-opacity="0" result="BackgroundImageFix"/>
<feColorMatrix in="SourceAlpha" type="matrix" values="0 0 0 0 0 0 0 0 0 0 0 0 0 0 0 0 0 0 127 0" result="hardAlpha"/>
<feOffset dy="4"/>
<feGaussianBlur stdDeviation="2"/>
<feComposite in2="hardAlpha" operator="out"/>
<feColorMatrix type="matrix" values="0 0 0 0 0 0 0 0 0 0 0 0 0 0 0 0 0 0 0.25 0"/>
<feBlend mode="normal" in2="BackgroundImageFix" result="effect1_dropShadow_10_111"/>
<feBlend mode="normal" in="SourceGraphic" in2="effect1_dropShadow_10_111" result="shape"/>
</filter>
</defs>
</svg>
