<?xml version="1.0" encoding="utf-8"?>
<!-- Generator: Adobe Illustrator 27.5.0, SVG Export Plug-In . SVG Version: 6.00 Build 0)  -->
<svg version="1.1" id="Layer_1" xmlns="http://www.w3.org/2000/svg" xmlns:xlink="http://www.w3.org/1999/xlink" x="0px" y="0px"
	 viewBox="0 0 1000 1000" style="enable-background:new 0 0 1000 1000;" xml:space="preserve">
<style type="text/css">
	.st0{fill:#CE3B2F;}
</style>
<g>
	<path class="st0" d="M616.13,756.1c70.15-119.6,162.29-218.44,271.26-301.84c34.03-26.05,70.11-49.43,105.25-74.04
		c0.85,0.77,1.71,1.55,2.56,2.32c0,2.34,0,4.67,0,7.01c0,38.48,0.21,76.96-0.29,115.43c-0.06,4.32-2.98,10.2-6.47,12.65
		c-132.62,92.9-237.55,209.93-310.72,354.71c-2.7,5.34-5.6,6.86-11.21,6.82c-35.69-0.23-71.39-0.33-107.07,0.06
		c-7.15,0.08-9.06-2.93-11.34-9.01c-7.79-20.75-16.04-41.37-25.2-61.54c-6.09-13.41-14.04-25.98-22.2-40.82
		c-3.23,4.8-5.95,7.86-7.57,11.41c-14,30.72-28.02,61.44-41.45,92.42c-2.31,5.34-4.34,7.57-10.38,7.52
		c-36.04-0.3-72.09-0.33-108.13,0.03c-6.14,0.06-8.68-2.57-11.08-7.4C261.55,750.03,175.86,648.52,71.19,562.5
		c-19.06-15.67-39.6-29.53-59.27-44.49c-2.76-2.1-6.22-5.67-6.25-8.59c-0.41-41.97-0.28-83.94-0.28-128.66
		c156.63,96.33,284.93,217.89,379.06,375.66c7.78-14.51,14.92-28.18,22.39-41.66c8.37-15.12,16.65-30.31,25.77-44.97
		c3.83-6.16,3.24-10.32-0.64-16.04c-42.17-62.24-91.31-118.54-145.69-170.29c-83.23-79.21-174.8-147.34-274.39-204.74
		c-2.99-1.73-6.23-6.19-6.26-9.41c-0.41-38.47-0.24-76.95-0.17-115.43c0-0.96,0.53-1.93,1.3-4.59
		c197.8,99.23,366.45,231.84,493.29,415.14c126.69-183.37,295.72-316.05,494.62-415.86c0.22,5.07,0.5,8.4,0.5,11.73
		c0.03,34.6-0.21,69.19,0.19,103.78c0.09,7.92-2.05,12.16-9.34,16.4c-141.01,82.03-266.74,182.47-370.24,309.29
		c-16.94,20.75-32.24,42.86-47.73,64.75c-2.24,3.16-3.18,9.65-1.45,12.84C582.5,696.79,599.1,725.83,616.13,756.1z"/>
	<path class="st0" d="M994.68,631.72c0,82.64,0,164.4,0,246.74c-70.25,0-139.98,0-209.77,0
		C796.44,825.32,927.9,670.49,994.68,631.72z"/>
	<path class="st0" d="M215.76,878.55c-70.05,0-139.47,0-209.66,0c0-82.05,0-163.61,0-245.28
		C56.84,653.55,196.46,816.61,215.76,878.55z"/>
</g>
</svg>
